<svg width="320" height="371" viewBox="0 0 320 371" fill="none" xmlns="http://www.w3.org/2000/svg"><path d="M18.05 320.45v-.31.31Z" fill="url(#dedicated_landing_svg__a)"/><path d="M299.26 319.86v.8-.8Z" fill="url(#dedicated_landing_svg__b)"/><path d="M18.05 327.6v-.32.33Z" fill="url(#dedicated_landing_svg__c)"/><path d="M299.26 326.97v.8-.8Z" fill="url(#dedicated_landing_svg__d)"/><path d="M257.94 272.08a9.01 9.01 0 0 1-4.38 6.05l-85.79 49.53a18.25 18.25 0 0 1-18.25 0l-85.8-49.5a9.11 9.11 0 0 1-4.56-7.9 9.12 9.12 0 0 1 4.57-7.9l85.79-49.54a18.25 18.25 0 0 1 18.25 0l85.8 49.5a9.1 9.1 0 0 1 4.37 9.76Z" fill="#EBEDF0"/><path d="M258.12 273.93a9.03 9.03 0 0 1-4.56 7.9l-85.79 49.53a18.25 18.25 0 0 1-18.26 0l-85.79-49.53a9.04 9.04 0 0 1-4.56-7.7v-.42a9.42 9.42 0 0 1 .19-1.63 8.98 8.98 0 0 0 4.37 6.04l85.8 49.54a18.25 18.25 0 0 0 18.25 0l85.8-49.5a9 9 0 0 0 4.37-6.05 9.54 9.54 0 0 1 .18 1.82Z" fill="#5F6474"/><path d="M258.12 273.93s0 7.02-.12 35.34v3.08c0 .1 0 .2-.06.3a9.02 9.02 0 0 1-4.37 6.05l-85.8 49.52a18.24 18.24 0 0 1-18.26 0L63.72 318.7a9.03 9.03 0 0 1-4.37-6.06l-.05-.29v-3.08c-.08-28.33-.12-35.11-.12-35.11a9.02 9.02 0 0 0 4.55 7.7l77.46 44.72 8.33 4.81a18.25 18.25 0 0 0 18.26 0l8.33-4.81 77.46-44.71a9.04 9.04 0 0 0 4.55-7.94Z" fill="#4D5365"/><path d="M136.8 332.36v19.96a1.07 1.07 0 0 1-.53.91 1.07 1.07 0 0 1-1.06 0l-53.84-31.08a2.1 2.1 0 0 1-1.05-1.82v-19.97a1.06 1.06 0 0 1 1.59-.91l2.22 1.3.28.15 51.33 29.63a2.1 2.1 0 0 1 .77.77c.19.32.29.69.29 1.06Z" fill="#1E243C"/><path d="M136.8 332.36v17.4l-51.34-29.64a2.11 2.11 0 0 1-1.05-1.82v-17.4l51.33 29.63a2.1 2.1 0 0 1 1.06 1.83Z" fill="#EBEDF0"/><path d="M127.22 331.91a4.46 4.46 0 0 0-2-2.05c-.27-.15-14.71-8.48-14.94-8.6-.75-.42-1.43-.71-2.04-.41h-1.47l-.18.1c-.1.07-.19.15-.27.24-.67.75-.74 2.2-.11 3.56a4.43 4.43 0 0 0 1.99 2.05c.27.15 14.72 8.49 14.96 8.61.73.4 1.4.7 2.02.4h1.46l.18-.1a.97.97 0 0 0 .22-.18c.72-.78.8-2.25.17-3.62Z" fill="#2027C9"/><path d="M125.75 332.71a4.49 4.49 0 0 0-2-2.05c-.27-.14-14.7-8.48-14.94-8.6-.74-.42-1.42-.7-2.04-.4l-.18.1c-.1.07-.19.15-.27.24-.67.74-.74 2.19-.11 3.56a4.43 4.43 0 0 0 1.99 2.05l14.96 8.61c.73.4 1.4.7 2.02.4l.18-.1c.09-.06.17-.13.24-.21.7-.78.78-2.22.15-3.6Z" fill="#454CEE"/><path d="m219.22 315.72 1.42 1.33a1.1 1.1 0 0 1 .34.82v12.96a1.1 1.1 0 0 1-1.71.93m7.7-20.9 1.42 1.33a1.12 1.12 0 0 1 .35.82v12.96a1.1 1.1 0 0 1-.58.97 1.1 1.1 0 0 1-1.14-.04m7.71-20.9 1.42 1.33a1.13 1.13 0 0 1 .34.81v12.97a1.11 1.11 0 0 1-.58.97 1.1 1.1 0 0 1-1.13-.05m7.7-20.9 1.43 1.33a1.12 1.12 0 0 1 .34.82v12.96a1.1 1.1 0 0 1-.58.98 1.1 1.1 0 0 1-1.13-.05" stroke="#fff" stroke-width="2.14" stroke-linecap="round" stroke-linejoin="round"/><path d="M97.37 314.4c-.86-1.9-2.57-2.92-3.75-2.32l-1.71.86-.2.1a1.61 1.61 0 0 0-.33.29c-.76.86-.85 2.5-.12 4.08.85 1.87 2.57 2.92 3.74 2.32l1.71-.86.2-.12a1.1 1.1 0 0 0 .28-.25c.8-.85.9-2.53.18-4.1Z" fill="#2027C9"/><path d="M95.53 319.3c-.08.1-.17.19-.28.26l-.2.12c-1.22.6-2.9-.45-3.74-2.32-.72-1.57-.64-3.23.12-4.08.1-.1.2-.2.32-.28l.2-.11c1.22-.6 2.91.42 3.75 2.3.71 1.6.62 3.27-.17 4.12Z" fill="#454CEE"/><path d="M257.94 136.18a9.04 9.04 0 0 1-4.38 6.06l-85.79 49.53a18.25 18.25 0 0 1-18.26 0l-85.79-49.53a9.12 9.12 0 0 1-4.56-7.9 9.13 9.13 0 0 1 4.56-7.91l85.8-49.52a18.25 18.25 0 0 1 18.25 0l85.8 49.54a9.09 9.09 0 0 1 4.37 9.73Z" fill="#fff"/><path opacity=".2" d="M231.2 135.69a6.56 6.56 0 0 1-3.2 4.42l-62.69 36.2a13.35 13.35 0 0 1-13.34 0l-62.7-36.2a6.55 6.55 0 0 1-3.19-4.42 6.63 6.63 0 0 1 3.2-7.13l62.7-36.23a13.36 13.36 0 0 1 13.33 0l62.7 36.2a6.62 6.62 0 0 1 3.2 7.16Z" stroke="#fff" stroke-width="1.28" stroke-miterlimit="10"/><path d="M258.12 138.04a9.04 9.04 0 0 1-4.56 7.9l-85.79 49.54a18.29 18.29 0 0 1-18.26 0l-85.79-49.53a9.03 9.03 0 0 1-4.56-7.71v-.43a9.57 9.57 0 0 1 .19-1.63 9 9 0 0 0 4.37 6.06l85.8 49.53a18.25 18.25 0 0 0 18.25 0l85.8-49.53a9.03 9.03 0 0 0 4.37-6.06c.12.62.18 1.24.18 1.86Z" fill="#EBEDF0"/><path d="m258.12 138.03-.13 113.64c0 .1 0 .2-.05.3a9 9 0 0 1-4.38 6.05l-85.79 49.53a18.24 18.24 0 0 1-18.26 0l-85.79-49.53a9 9 0 0 1-4.37-6.05l-.05-.3-.13-113.43a8.99 8.99 0 0 0 4.55 7.7l77.46 44.73 8.33 4.8a18.25 18.25 0 0 0 18.26 0l8.33-4.8 77.46-44.72a9.03 9.03 0 0 0 4.56-7.92Z" fill="#454CEE"/><path d="M145.18 215.69v5.38a1.35 1.35 0 0 1-.68 1.19 1.37 1.37 0 0 1-1.37 0L73.3 181.94a2.72 2.72 0 0 1-1.36-2.36v-5.4a1.36 1.36 0 0 1 1.36-1.36c.24 0 .48.07.68.19l2.9 1.67 66.94 38.64a2.72 2.72 0 0 1 1.36 2.37Z" fill="#2027C9"/><path d="M145.18 215.69V219l-66.95-38.65a2.74 2.74 0 0 1-1.37-2.37v-3.3l66.94 38.64a2.7 2.7 0 0 1 1.38 2.37Z" fill="#1E243C"/><path d="M145.18 236.04v5.39a1.36 1.36 0 0 1-.68 1.18 1.36 1.36 0 0 1-1.37 0L73.3 202.3a2.71 2.71 0 0 1-1.36-2.36v-5.39a1.36 1.36 0 0 1 2-1.16l2.9 1.67 66.94 38.65a2.72 2.72 0 0 1 1.4 2.34Z" fill="#2027C9"/><path d="M145.18 236.04v3.32L78.23 200.7a2.72 2.72 0 0 1-1.37-2.36v-3.32l66.94 38.65a2.7 2.7 0 0 1 1.38 2.36Z" fill="#1E243C"/><path d="M145.18 256.4v5.39a1.35 1.35 0 0 1-.68 1.18 1.37 1.37 0 0 1-1.37 0L73.3 222.65a2.72 2.72 0 0 1-1.36-2.36v-5.38a1.37 1.37 0 0 1 2.04-1.2l2.9 1.68 66.94 38.65a2.74 2.74 0 0 1 1.36 2.36Z" fill="#2027C9"/><path d="M145.18 256.4v3.31l-66.95-38.64a2.72 2.72 0 0 1-1.37-2.37v-3.31l66.94 38.65a2.73 2.73 0 0 1 1.38 2.36Z" fill="#1E243C"/><path d="M145.18 276.75v5.4a1.36 1.36 0 0 1-.68 1.18 1.37 1.37 0 0 1-1.37 0L73.3 243.05a2.7 2.7 0 0 1-1.36-2.36v-5.38a1.36 1.36 0 0 1 .68-1.19 1.36 1.36 0 0 1 1.36 0l2.9 1.67 66.94 38.64a2.72 2.72 0 0 1 1.36 2.33Z" fill="#2027C9"/><path d="M145.18 276.75v3.33l-66.95-38.66a2.73 2.73 0 0 1-1.37-2.36v-3.32l66.94 38.65a2.73 2.73 0 0 1 1.38 2.36Z" fill="#1E243C"/><path d="M213.7 200.9v32.47c0 3.13-1.91 6.78-4.28 8.14-1.85 1.06-3.43.4-4.01-1.45a5.44 5.44 0 0 1-.22-1.08v-33.16a10.59 10.59 0 0 1 1.24-4.73 8.36 8.36 0 0 1 3.01-3.43c.17-.1.34-.18.52-.26l.44-.15c1.9-.45 3.3.96 3.3 3.66Z" fill="#2027C9"/><path d="M210 198.13v32.46c0 3.13-1.9 6.78-4.29 8.13a4.28 4.28 0 0 1-.52.26v-33.16a10.59 10.59 0 0 1 1.24-4.73 8.36 8.36 0 0 1 3.01-3.43c.17-.1.34-.18.52-.26l.03.73Z" fill="#1E243C"/><path d="M194.77 211.7v32.46c0 3.14-1.9 6.78-4.28 8.14-1.85 1.07-3.43.4-4-1.44a4.97 4.97 0 0 1-.22-1.08 5.87 5.87 0 0 1 0-.7v-32.46a10.43 10.43 0 0 1 1.25-4.73 8.37 8.37 0 0 1 3-3.43 4.07 4.07 0 0 1 .97-.4c1.88-.5 3.28.94 3.28 3.64Z" fill="#2027C9"/><path d="M191.07 208.93v32.46c0 3.13-1.9 6.77-4.28 8.13a4.72 4.72 0 0 1-.51.26 5.87 5.87 0 0 1 0-.7v-32.46a10.43 10.43 0 0 1 1.25-4.73 8.37 8.37 0 0 1 3-3.43c.17-.1.35-.18.53-.26l.01.73Z" fill="#1E243C"/><path d="M215.35 135.39a5.13 5.13 0 0 1-2.5 3.42l-3.84 2.22-45.14 26.11a10.44 10.44 0 0 1-10.42 0l-45.17-26.07-3.84-2.22a5.2 5.2 0 0 1-2.6-4.52 5.21 5.21 0 0 1 2.6-4.5l49-28.27a10.44 10.44 0 0 1 10.43 0l49 28.26a5.2 5.2 0 0 1 2.48 5.57Z" fill="#454CEE"/><path d="m209.01 141.06-45.14 26.08a10.44 10.44 0 0 1-10.42 0l-45.17-26.07 45.17-26.08a10.44 10.44 0 0 1 10.42 0L209 141.07Z" fill="#1E243C"/><path style="mix-blend-mode:screen" d="M215.35 35.25a5.2 5.2 0 0 0-2.5-5.56l-48.98-28.3a10.44 10.44 0 0 0-10.42 0l-49 28.26a5.14 5.14 0 0 0-2.5 5.57v98.11a5.01 5.01 0 0 0 0 2.06 5.13 5.13 0 0 0 2.5 3.42l3.83 2.22 45.17 26.08a10.44 10.44 0 0 0 10.42 0l45.16-26.08 3.84-2.22a5.14 5.14 0 0 0 2.5-5.48l-.02-98.08Z" fill="url(#dedicated_landing_svg__e)"/><path d="M198.34 64.13v66.28m-15.09-75.08v51.82m-15.09-37.51v64.7m-44.72-59.89v50.73m21.26-71.3v60.75" stroke="#fff" stroke-width="1.03" stroke-linecap="round" stroke-linejoin="round" style="mix-blend-mode:screen"/><path d="M159.32 150.24a.69.69 0 1 0 0-1.37.69.69 0 0 0 0 1.37Zm-3-67.63a.69.69 0 1 0 0-1.37.69.69 0 0 0 0 1.37Zm-25.19-23.67a.69.69 0 1 0 0-1.37.69.69 0 0 0 0 1.37Zm61.04 5.19a.69.69 0 1 0 0-1.37.69.69 0 0 0 0 1.37Zm-81.34 36.37a.69.69 0 1 0 0-1.37.69.69 0 0 0 0 1.37Zm36.68 22.64a.68.68 0 1 0 0-1.37.68.68 0 0 0 0 1.37Zm36.43 14.9a.69.69 0 1 0 0-1.38.69.69 0 0 0 0 1.37Zm-58.23.68a.69.69 0 1 0 0-1.37.69.69 0 0 0 0 1.37Z" fill="#fff"/><path d="M277.29 239.3a.95.95 0 0 0-.48-.82l-9.74-5.63a2.42 2.42 0 0 0-2.4 0l-9.74 5.63a.95.95 0 0 0-.49.83v11.06a.97.97 0 0 0 .49.84l9.73 5.62a2.42 2.42 0 0 0 2.4 0l9.75-5.62a.98.98 0 0 0 .48-.84v-11.06Z" fill="#2027C9"/><path d="M277.28 239.3a.95.95 0 0 1-.47.84l-.38.21-9.37 5.42a2.42 2.42 0 0 1-2.4 0l-9.37-5.42-.36-.21a.96.96 0 0 1-.49-.83.95.95 0 0 1 .49-.83l9.73-5.63a2.42 2.42 0 0 1 2.4 0l9.75 5.63a.95.95 0 0 1 .47.83Z" fill="#454CEE"/><path d="M319.99 202.04a.73.73 0 0 0-.39-.66l-7.8-4.5a1.92 1.92 0 0 0-1.92 0l-7.8 4.5a.73.73 0 0 0-.37.66v8.87a.73.73 0 0 0 .38.67l7.8 4.5a1.96 1.96 0 0 0 1.93 0l7.8-4.5a.73.73 0 0 0 .38-.67v-8.87h-.01Z" fill="#2027C9"/><path d="M319.99 202.04a.74.74 0 0 1-.39.67l-.3.17-7.5 4.34a1.92 1.92 0 0 1-1.92 0l-7.5-4.34-.3-.17a.74.74 0 0 1-.39-.67.73.73 0 0 1 .38-.66l7.8-4.5a1.91 1.91 0 0 1 1.93 0l7.8 4.5a.73.73 0 0 1 .39.66Z" fill="#454CEE"/><path d="M299.48 175.8a.32.32 0 0 0-.16-.29l-3.33-1.92a.8.8 0 0 0-.82 0l-3.32 1.92a.32.32 0 0 0-.17.28v3.78a.31.31 0 0 0 .05.17c.02.05.07.09.12.11l3.32 1.93a.81.81 0 0 0 .82 0l3.33-1.93a.31.31 0 0 0 .12-.11.31.31 0 0 0 .04-.17v-3.77Z" fill="#2027C9"/><path d="M299.48 175.8a.3.3 0 0 1-.16.28l-.13.07L296 178a.81.81 0 0 1-.82 0l-3.2-1.85-.12-.07a.32.32 0 0 1-.13-.12.32.32 0 0 1-.04-.17.32.32 0 0 1 .17-.28l3.32-1.92a.8.8 0 0 1 .82 0l3.33 1.92a.32.32 0 0 1 .16.29Z" fill="#454CEE"/><path d="M44.96 183.88a.4.4 0 0 0-.2-.35l-4.1-2.38a1 1 0 0 0-1.02 0l-4.11 2.38a.4.4 0 0 0-.2.35v4.67a.39.39 0 0 0 .2.35l4.07 2.33a1 1 0 0 0 1.01 0l4.11-2.37a.4.4 0 0 0 .2-.36v-4.62h.04Z" fill="#2027C9"/><path d="M44.96 183.88a.4.4 0 0 1-.2.35l-.16.1-3.95 2.28a1.04 1.04 0 0 1-1.01 0l-3.96-2.29-.15-.09a.4.4 0 0 1-.2-.35.4.4 0 0 1 .2-.35l4.1-2.38a1 1 0 0 1 1.02 0l4.1 2.38a.4.4 0 0 1 .21.35Z" fill="#454CEE"/><path d="M24.78 233.2a1.01 1.01 0 0 0-.52-.9l-10.41-6.01a2.56 2.56 0 0 0-2.57 0L.88 232.3a1.02 1.02 0 0 0-.51.89v11.85a1.01 1.01 0 0 0 .51.89l10.43 6.01a2.6 2.6 0 0 0 2.57 0l10.41-6.01a1.02 1.02 0 0 0 .52-.9v-11.85h-.03Z" fill="#2027C9"/><path d="M24.78 233.2a1 1 0 0 1-.52.88l-.39.24-10.02 5.79a2.59 2.59 0 0 1-2.57 0l-10.03-5.8-.4-.23a1.03 1.03 0 0 1-.51-.89 1.03 1.03 0 0 1 .51-.89l10.43-6.01a2.56 2.56 0 0 1 2.57 0l10.41 6.02a1.02 1.02 0 0 1 .52.89Z" fill="#454CEE"/><path d="M16.5 197.06a.7.7 0 0 0-.34-.6l-7.04-4.06a1.74 1.74 0 0 0-1.74 0l-7.03 4.06a.69.69 0 0 0-.35.6v8a.7.7 0 0 0 .35.6l7.03 4.06a1.74 1.74 0 0 0 1.74 0l7.04-4.06a.69.69 0 0 0 .34-.6v-8Z" fill="#2027C9"/><path d="M16.5 197.06a.74.74 0 0 1-.34.6l-.27.16-6.77 3.9a1.7 1.7 0 0 1-1.74 0l-6.76-3.88-.27-.15a.73.73 0 0 1-.35-.6.7.7 0 0 1 .35-.6l7.03-4.07a1.75 1.75 0 0 1 1.74 0l7.04 4.06a.69.69 0 0 1 .34.58Z" fill="#454CEE"/><defs><linearGradient id="dedicated_landing_svg__a" x1="18.04" y1="320.24" x2="18.05" y2="320.24" gradientUnits="userSpaceOnUse"><stop stop-color="#2E3341"/><stop offset=".5" stop-color="#454A56"/><stop offset=".73" stop-color="#262A32"/><stop offset="1" stop-color="#03060A"/></linearGradient><linearGradient id="dedicated_landing_svg__b" x1="302.67" y1="681.92" x2="302.67" y2="681.92" gradientUnits="userSpaceOnUse"><stop stop-color="#2E3341"/><stop offset=".5" stop-color="#454A56"/><stop offset=".73" stop-color="#262A32"/><stop offset="1" stop-color="#03060A"/></linearGradient><linearGradient id="dedicated_landing_svg__c" x1="20.21" y1="527.33" x2="20.21" y2="527.33" gradientUnits="userSpaceOnUse"><stop stop-color="#2E3341"/><stop offset=".5" stop-color="#454A56"/><stop offset=".73" stop-color="#262A32"/><stop offset="1" stop-color="#03060A"/></linearGradient><linearGradient id="dedicated_landing_svg__d" x1="302.67" y1="693.09" x2="302.67" y2="693.09" gradientUnits="userSpaceOnUse"><stop stop-color="#2E3341"/><stop offset=".5" stop-color="#454A56"/><stop offset=".73" stop-color="#262A32"/><stop offset="1" stop-color="#03060A"/></linearGradient><linearGradient id="dedicated_landing_svg__e" x1="158.64" y1="167.84" x2="158.64" y2="2.05" gradientUnits="userSpaceOnUse"><stop offset=".01" stop-color="#fff" stop-opacity=".3"/><stop offset=".12" stop-color="#fff" stop-opacity=".23"/><stop offset=".32" stop-color="#fff" stop-opacity=".13"/><stop offset=".54" stop-color="#fff" stop-opacity=".06"/><stop offset=".76" stop-color="#fff" stop-opacity=".01"/><stop offset="1" stop-color="#fff" stop-opacity="0"/></linearGradient></defs></svg>